<svg width="11" height="10" viewBox="0 0 11 10" fill="none" xmlns="http://www.w3.org/2000/svg">
<path d="M4.14592 8.08755C4.14574 7.85347 3.98218 7.64832 3.74998 7.59858C2.88335 7.41296 2.11607 6.91321 1.59593 6.1956C1.0758 5.47799 0.83961 4.59329 0.932864 3.71193C1.02612 2.83056 1.44222 2.01488 2.10101 1.42201C2.75978 0.829162 3.61462 0.501048 4.50087 0.500868C4.5009 0.500868 4.50093 0.500868 4.50096 0.500868L6.88158 0.500874L6.8839 0.500863C7.35656 0.498674 7.825 0.58988 8.26231 0.769244L8.45236 0.30588L8.26231 0.769244C8.69963 0.948608 9.0972 1.2126 9.4322 1.54605C9.7672 1.8795 10.033 2.27584 10.2144 2.71232C10.3958 3.1488 10.4892 3.61681 10.4892 4.08948C10.4892 4.56215 10.3958 5.03016 10.2144 5.46664C10.033 5.90311 9.7672 6.29946 9.4322 6.63291C9.0972 6.96636 8.69963 7.23035 8.26231 7.40971C7.825 7.58908 7.35656 7.68028 6.8839 7.67809V7.67809H6.88158H6.4557C6.27979 7.67809 6.11677 7.77039 6.02626 7.92123C5.57787 8.66849 4.82138 9.1776 4.21425 9.48422C4.18938 9.49656 4.16146 9.50142 4.13387 9.49821C4.1061 9.49498 4.07988 9.4837 4.05843 9.46576C4.03699 9.44783 4.02125 9.42402 4.01315 9.39726L4.14592 8.08755Z" fill="#1B1D21" stroke="#1B1D21" stroke-width="1.00165" stroke-linejoin="round"/>
</svg>
