<svg width="153" height="64" viewBox="0 0 153 64" fill="none" xmlns="http://www.w3.org/2000/svg">
<path d="M27.7209 17.9596C22.8106 19.3515 19.0279 23.3373 17.8088 28.2951C16.759 32.5552 17.5853 36.6088 19.6205 39.8226L17.9307 45.3696C17.8325 45.9859 18.354 46.5244 18.9737 46.4431L24.3886 44.5162C27.5855 46.4634 31.5849 47.222 35.7739 46.1756C40.1323 45.0851 44.8022 40.6218 46.0315 36.3007C49.2757 24.9154 39.1028 14.7323 27.7175 17.9596H27.7209Z" fill="#B0B0BA"/>
<path d="M32.0014 47.9975C29.2855 47.9975 26.6305 47.3236 24.2498 46.0028L19.2886 47.7672L19.1464 47.7875C18.4217 47.8823 17.7173 47.6351 17.2094 47.1102C16.7014 46.5853 16.4745 45.8742 16.593 45.1528L16.6337 44.9734L18.1474 40.0054C16.0546 36.3955 15.4653 32.1455 16.4948 27.97C17.8392 22.5076 22.0012 18.173 27.3518 16.6558C33.1765 15.0032 39.1468 16.5136 43.3223 20.6925C47.4978 24.8714 48.998 30.8451 47.3353 36.6732C45.9807 41.4277 40.9416 46.2805 36.1024 47.4895C34.7377 47.8315 33.3628 48.0009 32.0048 48.0009L32.0014 47.9975ZM24.541 43.0228L25.093 43.358C28.1612 45.2274 31.8388 45.7624 35.4454 44.8582C39.3771 43.8762 43.6305 39.7853 44.7311 35.9281C46.1195 31.0618 44.8767 26.0803 41.4056 22.6058C37.9345 19.1313 32.9598 17.8817 28.09 19.26C23.6707 20.513 20.2369 24.0993 19.1227 28.6168C18.2219 32.2809 18.8044 36.0027 20.7618 39.0945L21.0936 39.6194L19.5121 44.8108L24.541 43.0194V43.0228Z" fill="#1B1D21"/>
<path d="M25.0727 34.1604C26.2229 34.1604 27.1554 33.228 27.1554 32.0777C27.1554 30.9275 26.2229 29.9951 25.0727 29.9951C23.9225 29.9951 22.99 30.9275 22.99 32.0777C22.99 33.228 23.9225 34.1604 25.0727 34.1604Z" fill="#1B1D21"/>
<path d="M32.1843 34.1604C33.3345 34.1604 34.2669 33.228 34.2669 32.0777C34.2669 30.9275 33.3345 29.9951 32.1843 29.9951C31.034 29.9951 30.1016 30.9275 30.1016 32.0777C30.1016 33.228 31.034 34.1604 32.1843 34.1604Z" fill="#1B1D21"/>
<path d="M39.2958 34.1604C40.446 34.1604 41.3785 33.228 41.3785 32.0777C41.3785 30.9275 40.446 29.9951 39.2958 29.9951C38.1456 29.9951 37.2131 30.9275 37.2131 32.0777C37.2131 33.228 38.1456 34.1604 39.2958 34.1604Z" fill="#1B1D21"/>
<path fill-rule="evenodd" clip-rule="evenodd" d="M61.0485 25.6483C58.1131 25.6483 56 27.7342 56 30.4572L56.0218 37.5317C56.0218 40.282 58.1621 42.3134 61.0703 42.3134C63.9785 42.3134 66.1188 40.282 66.1188 37.5317C66.1068 37.3366 66.0257 37.1521 65.8899 37.0113C65.7542 36.8706 65.5728 36.7829 65.3782 36.7638H62.8675C62.6713 36.7784 62.4873 36.8647 62.3506 37.0064C62.214 37.148 62.1344 37.335 62.1269 37.5317V37.6896C62.144 37.8373 62.1293 37.987 62.0837 38.1286C62.0382 38.2701 61.9628 38.4002 61.8626 38.5101C61.7625 38.6201 61.64 38.7073 61.5033 38.7658C61.3666 38.8244 61.219 38.853 61.0703 38.8497C60.9201 38.8588 60.7698 38.8348 60.63 38.7792C60.4901 38.7237 60.3643 38.638 60.2613 38.5283C60.1584 38.4186 60.0808 38.2875 60.0343 38.1445C59.9877 38.0014 59.9733 37.8498 59.992 37.7005V30.2993C59.977 30.1515 59.9931 30.0023 60.0394 29.8611C60.0856 29.72 60.161 29.5901 60.2605 29.4799C60.3601 29.3697 60.4817 29.2816 60.6174 29.2213C60.7531 29.161 60.9 29.1299 61.0485 29.1299C61.197 29.1299 61.3439 29.161 61.4797 29.2213C61.6154 29.2816 61.737 29.3697 61.8365 29.4799C61.9361 29.5901 62.0114 29.72 62.0577 29.8611C62.104 30.0023 62.1201 30.1515 62.1051 30.2993V30.43C62.1119 30.6296 62.1906 30.82 62.3267 30.9661C62.4628 31.1122 62.6471 31.2042 62.8457 31.2251H65.3564C65.555 31.2042 65.7393 31.1122 65.8755 30.9661C66.0116 30.82 66.0903 30.6296 66.0971 30.43C66.0971 27.6852 63.984 25.6483 61.0485 25.6483ZM68.1501 30.4629V37.5428C68.1501 40.2931 70.2631 42.3517 73.1986 42.3517C76.134 42.3517 78.2471 40.2931 78.2471 37.5428V30.4629C78.2471 27.7181 76.134 25.654 73.1986 25.654C70.2631 25.654 68.1501 27.7399 68.1501 30.4629ZM72.142 37.7008V30.2995C72.127 30.1518 72.1432 30.0025 72.1894 29.8614C72.2357 29.7202 72.311 29.5904 72.4106 29.4802C72.5102 29.3699 72.6317 29.2819 72.7675 29.2216C72.9032 29.1613 73.0501 29.1301 73.1986 29.1301C73.3471 29.1301 73.494 29.1613 73.6297 29.2216C73.7655 29.2819 73.887 29.3699 73.9866 29.4802C74.0862 29.5904 74.1615 29.7202 74.2078 29.8614C74.254 30.0025 74.2702 30.1518 74.2551 30.2995V37.7008C74.2702 37.8485 74.254 37.9978 74.2078 38.1389C74.1615 38.2801 74.0862 38.4099 73.9866 38.5201C73.887 38.6303 73.7655 38.7184 73.6297 38.7787C73.494 38.839 73.3471 38.8702 73.1986 38.8702C73.0501 38.8702 72.9032 38.839 72.7675 38.7787C72.6317 38.7184 72.5102 38.6303 72.4106 38.5201C72.311 38.4099 72.2357 38.2801 72.1894 38.1389C72.1432 37.9978 72.127 37.8485 72.142 37.7008ZM85.0324 36.4587V41.3602C85.0161 41.556 84.934 41.7407 84.7996 41.884C84.6651 42.0274 84.4862 42.1211 84.2917 42.1499H81.7811C81.5839 42.129 81.401 42.0376 81.2659 41.8925C81.1308 41.7474 81.0526 41.5583 81.0459 41.3602V26.6012C81.0532 26.4055 81.1321 26.2192 81.2676 26.0776C81.4031 25.9361 81.5858 25.8492 81.7811 25.8334H84.0031C84.1712 25.8827 84.3256 25.9703 84.4541 26.0894C84.5826 26.2084 84.6818 26.3557 84.7438 26.5196L87.0148 31.6498V26.6012C87.0268 26.4061 87.108 26.2216 87.2437 26.0809C87.3794 25.9402 87.5609 25.8524 87.7555 25.8334H90.2933C90.4896 25.8479 90.6736 25.9343 90.8102 26.0759C90.9468 26.2176 91.0265 26.4046 91.034 26.6012V41.3983C91.0315 41.5965 90.9534 41.7863 90.8158 41.929C90.6782 42.0717 90.4913 42.1565 90.2933 42.1662H88.0495C87.8755 42.1298 87.7145 42.0467 87.5841 41.9258C87.4536 41.8049 87.3585 41.6508 87.3089 41.48L85.0324 36.4587ZM96.7523 41.9114C96.891 42.05 97.0711 42.1395 97.2654 42.1662H100.555C100.749 42.1401 100.929 42.0507 101.067 41.9119C101.204 41.773 101.293 41.5924 101.317 41.3983L104.623 26.6285C104.606 26.4279 104.52 26.2395 104.38 26.0947C104.24 25.9499 104.055 25.8576 103.855 25.8334H101.372C101.189 25.8535 101.018 25.9306 100.882 26.0539C100.746 26.1771 100.653 26.3401 100.615 26.5196L98.9265 35.5056L97.2327 26.5196C97.1953 26.3389 97.1012 26.1748 96.964 26.0514C96.8269 25.928 96.6539 25.8516 96.4703 25.8334H93.9651C93.7662 25.8588 93.5821 25.9515 93.4434 26.0962C93.3046 26.2409 93.2197 26.4288 93.2026 26.6285L96.4975 41.3983C96.5242 41.5925 96.6137 41.7727 96.7523 41.9114ZM106.272 37.5428V30.4629C106.272 27.7399 108.385 25.654 111.315 25.654C114.245 25.654 116.364 27.7181 116.364 30.4629V37.5428C116.364 40.2931 114.251 42.3517 111.315 42.3517C108.38 42.3517 106.272 40.2931 106.272 37.5428ZM110.259 30.2995V37.7008C110.221 37.8608 110.219 38.0275 110.254 38.1883C110.29 38.3491 110.361 38.4998 110.463 38.629C110.565 38.7583 110.695 38.8627 110.843 38.9345C110.991 39.0064 111.153 39.0437 111.318 39.0437C111.483 39.0437 111.645 39.0064 111.793 38.9345C111.941 38.8627 112.071 38.7583 112.173 38.629C112.275 38.4998 112.347 38.3491 112.382 38.1883C112.417 38.0275 112.416 37.8608 112.377 37.7008V30.2995C112.416 30.1394 112.417 29.9727 112.382 29.812C112.347 29.6512 112.275 29.5005 112.173 29.3713C112.071 29.242 111.941 29.1376 111.793 29.0657C111.645 28.9939 111.483 28.9566 111.318 28.9566C111.153 28.9566 110.991 28.9939 110.843 29.0657C110.695 29.1376 110.565 29.242 110.463 29.3713C110.361 29.5005 110.29 29.6512 110.254 29.812C110.219 29.9727 110.221 30.1394 110.259 30.2995ZM122.034 36.4861H119.497C119.304 36.5099 119.126 36.6032 118.996 36.7485C118.867 36.8938 118.795 37.0812 118.794 37.2757C118.794 41.0063 121.441 42.3515 123.897 42.3515C126.462 42.3515 129 41.0553 129 37.4881C129 34.4476 126.912 33.4143 125.162 32.5482C123.9 31.9235 122.813 31.3859 122.813 30.2448C122.813 29.6948 122.971 29.0848 123.657 29.0848C124.344 29.0848 124.556 29.7438 124.556 30.6152C124.56 30.813 124.638 31.0021 124.776 31.1445C124.913 31.2869 125.099 31.3721 125.297 31.3831H127.835C128.028 31.3573 128.206 31.2638 128.336 31.1192C128.467 30.9746 128.542 30.7882 128.548 30.5934C128.494 29.112 127.9 25.6483 123.712 25.6483C119.524 25.6483 118.81 28.3169 118.81 30.4082C118.81 33.408 120.917 34.5073 122.671 35.423C123.924 36.0766 124.997 36.6367 124.997 37.7278C125.013 37.8699 124.999 38.0138 124.956 38.1501C124.913 38.2864 124.841 38.4121 124.746 38.519C124.651 38.6258 124.535 38.7115 124.404 38.7703C124.274 38.8292 124.133 38.8599 123.99 38.8606C122.802 38.8606 122.775 37.8857 122.775 37.2757C122.768 37.0767 122.689 36.887 122.553 36.7418C122.417 36.5966 122.233 36.5057 122.034 36.4861Z" fill="#1B1D21"/>
</svg>
