<svg width="32" height="32" viewBox="0 0 32 32" fill="none" xmlns="http://www.w3.org/2000/svg">
<path fill-rule="evenodd" clip-rule="evenodd" d="M19.5 14L18.42 11.84L15.7075 6.41495L14.5 4L13.2925 6.41495L10.58 11.84L9.5 14H11.915H17.085H19.5ZM16.005 11.84L14.5 8.82991L12.995 11.84H16.005ZM11.84 20.16H6.16V25.84H11.84V20.16ZM6.16 18H4V20.16V25.84V28H6.16H11.84H14V25.84V20.16V18H11.84H6.16ZM23 25.84C21.4315 25.84 20.16 24.5685 20.16 23C20.16 21.4315 21.4315 20.16 23 20.16C24.5685 20.16 25.84 21.4315 25.84 23C25.84 24.5685 24.5685 25.84 23 25.84ZM18 23C18 20.2386 20.2386 18 23 18C25.7614 18 28 20.2386 28 23C28 25.7614 25.7614 28 23 28C20.2386 28 18 25.7614 18 23Z" fill="#60606D"/>
</svg>
