<svg width="24" height="24" viewBox="0 0 24 24" fill="none" xmlns="http://www.w3.org/2000/svg">
<path fill-rule="evenodd" clip-rule="evenodd" d="M2.18182 12C2.18182 6.57744 6.57757 2.18161 12 2.18161C17.4224 2.18161 21.8182 6.57744 21.8182 12C21.8182 17.4225 17.4224 21.8183 12 21.8183C6.57757 21.8183 2.18182 17.4225 2.18182 12ZM12 -0.000244141C5.37258 -0.000244141 0 5.37243 0 12C0 18.6275 5.37258 24.0002 12 24.0002C18.6274 24.0002 24 18.6275 24 12C24 5.37243 18.6274 -0.000244141 12 -0.000244141ZM12.2809 7.66343C11.773 7.57632 11.2508 7.67176 10.8065 7.93283C10.3623 8.19391 10.0248 8.60378 9.85384 9.08985C9.65391 9.65821 9.03109 9.95688 8.46274 9.75694C7.89438 9.557 7.59572 8.93418 7.79566 8.36581C8.13762 7.39368 8.8126 6.57394 9.70104 6.05178C10.5895 5.52963 11.634 5.33876 12.6497 5.51298C13.6654 5.6872 14.5867 6.21527 15.2503 7.00365C15.9137 7.79172 16.2769 8.78908 16.2757 9.81918C16.2754 11.489 15.0375 12.5917 14.1535 13.1811C13.6783 13.4979 13.2108 13.7308 12.8664 13.8839C12.6927 13.9611 12.5464 14.0197 12.441 14.0599C12.3882 14.08 12.3454 14.0956 12.3142 14.1066L12.2764 14.1199L12.2643 14.124L12.26 14.1255L12.2584 14.126C11.6868 14.3166 11.0676 14.0081 10.8771 13.4365C10.6867 12.8653 10.995 12.248 11.5659 12.057L11.5833 12.0509C11.6001 12.0449 11.6276 12.0349 11.6643 12.0209C11.7378 11.9929 11.8472 11.9492 11.9803 11.8901C12.2496 11.7704 12.6003 11.5943 12.9433 11.3656C13.6955 10.8641 14.0938 10.3306 14.0938 9.81876C14.0946 9.30349 13.913 8.80296 13.5812 8.40877C13.2493 8.01457 12.7887 7.75054 12.2809 7.66343ZM10.9088 17.4549C10.9088 16.8524 11.3972 16.364 11.9997 16.364H12.0107C12.6132 16.364 13.1016 16.8524 13.1016 17.4549C13.1016 18.0574 12.6132 18.5458 12.0107 18.5458H11.9997C11.3972 18.5458 10.9088 18.0574 10.9088 17.4549Z" fill="#60606D"/>
</svg>
