<svg width="16" height="12" viewBox="0 0 16 12" fill="none" xmlns="http://www.w3.org/2000/svg">
<path d="M11.1539 6.71188C10.1327 6.74137 9.12909 6.9847 8.20779 7.42617C7.28657 6.98091 6.28092 6.73739 5.25806 6.71188C3.8367 6.71188 1 7.48569 1 9.03571V11H15.412V9.03571C15.412 7.48569 12.5759 6.71188 11.1539 6.71188ZM14.4295 9.92857H9.51611V9.03571C9.50902 8.71414 9.38824 8.40548 9.1752 8.1645C9.80773 7.92488 10.477 7.79672 11.1533 7.78571C12.752 7.78571 14.4289 8.65031 14.4289 9.03571L14.4295 9.92857ZM5.25806 6C5.89352 5.97158 6.49185 5.69256 6.92208 5.22402C7.35231 4.75548 7.57939 4.13558 7.55363 3.5C7.57939 2.86442 7.35231 2.24452 6.92208 1.77598C6.49185 1.30744 5.89352 1.02842 5.25806 1C4.62312 1.02919 4.02556 1.30854 3.59597 1.777C3.16639 2.24545 2.93971 2.86492 2.96549 3.5C2.93971 4.13508 3.16639 4.75455 3.59597 5.223C4.02556 5.69146 4.62312 5.97081 5.25806 6ZM11.1539 6C11.7887 5.97065 12.3862 5.69124 12.8156 5.2228C13.2451 4.75436 13.4717 4.13498 13.4459 3.5C13.4717 2.86502 13.2451 2.24564 12.8156 1.7772C12.3862 1.30876 11.7887 1.02935 11.1539 1C10.519 1.02919 9.92142 1.30854 9.49184 1.777C9.06225 2.24545 8.83557 2.86492 8.86135 3.5C8.83557 4.13508 9.06225 4.75455 9.49184 5.223C9.92142 5.69146 10.519 5.97081 11.1539 6ZM11.1539 2.07143C11.5165 2.08891 11.8575 2.24877 12.1028 2.51628C12.3481 2.78378 12.4779 3.1373 12.464 3.5C12.4779 3.8627 12.3481 4.21622 12.1028 4.48372C11.8575 4.75123 11.5165 4.91109 11.1539 4.92857C10.7914 4.91109 10.4504 4.75123 10.2051 4.48372C9.95973 4.21622 9.82991 3.8627 9.84379 3.5C9.82991 3.1373 9.95973 2.78378 10.2051 2.51628C10.4504 2.24877 10.7914 2.08891 11.1539 2.07143Z" fill="#1B1D21" stroke="#1B1D21" stroke-width="0.096363"/>
</svg>
